<svg width="60" height="60" viewBox="0 0 60 60" fill="none" xmlns="http://www.w3.org/2000/svg">
<path d="M52.8979 25.4978L47.1429 9.7473V1.42852C47.1429 0.639609 46.5032 0 45.7144 0H14.2859C13.497 0 12.8574 0.639727 12.8574 1.42852V9.74719L7.1022 25.4978C6.41934 27.3636 6.07045 29.335 6.07154 31.3219V55.0765C6.07154 57.7913 8.28017 60 10.9951 60H49.0051C51.7199 60 53.9286 57.7913 53.9286 55.0765V31.3219C53.9286 29.329 53.5818 27.3694 52.8979 25.4978ZM15.7143 2.85715H44.2858V8.57145H15.7143V2.85715ZM51.0715 50.1321H30.9078C30.1189 50.1321 29.4793 50.7718 29.4793 51.5606C29.4793 52.3495 30.119 52.9891 30.9078 52.9891H51.0715V55.0763C51.0715 56.2157 50.1446 57.1427 49.0051 57.1427H10.9951C9.85564 57.1427 8.92868 56.2158 8.92868 55.0763V31.3219C8.9278 29.6695 9.21794 28.03 9.78579 26.4783L15.2848 11.4286H44.7153L50.2143 26.4783C50.7822 28.03 51.0723 29.6695 51.0714 31.3219L51.0715 50.1321Z" fill="#F1CDB3"/>
<path d="M35.617 33.805C35.1506 30.8772 32.6078 28.632 29.5505 28.632C26.4932 28.632 23.9505 30.8772 23.4841 33.805C21.0671 34.7989 19.4858 37.2756 19.6899 39.9659C19.9176 42.9637 22.3507 45.392 25.349 45.6148C26.5072 45.7011 27.6573 45.4628 28.6751 44.9259C29.2316 44.6328 29.8698 44.6326 30.4257 44.926C31.3085 45.3908 32.2915 45.6331 33.2892 45.632C33.4429 45.632 33.5975 45.6263 33.7517 45.6149C36.7503 45.3923 39.1832 42.9638 39.411 39.966C39.6153 37.2756 38.034 34.7989 35.617 33.805ZM36.5621 39.7495C36.4406 41.35 35.1416 42.6466 33.5403 42.7655C32.9177 42.8126 32.3014 42.6851 31.7587 42.3986C31.0781 42.0394 30.3202 41.8517 29.5507 41.8517C28.7811 41.8517 28.0232 42.0394 27.3426 42.3986C26.7999 42.6849 26.1849 42.8123 25.5609 42.7655C23.9598 42.6467 22.6606 41.3501 22.5392 39.7495C22.4144 38.1062 23.5297 36.6124 25.1332 36.2746C25.4588 36.206 25.7503 36.0259 25.9574 35.7653C26.1644 35.5047 26.274 35.18 26.2672 34.8473L26.2648 34.775C26.2648 32.9632 27.7387 31.4893 29.5505 31.4893C31.3624 31.4893 32.8362 32.9632 32.8362 34.7698L32.834 34.8473C32.8271 35.1801 32.9366 35.5048 33.1437 35.7654C33.3507 36.026 33.6423 36.2061 33.968 36.2746C35.5717 36.6124 36.6869 38.1062 36.5621 39.7495Z" fill="#F1CDB3"/>
<path d="M29.5506 25.7751C32.1108 25.7751 34.1935 23.6924 34.1935 21.1322C34.1935 18.572 32.1108 16.4893 29.5506 16.4893C26.9904 16.4893 24.9078 18.5721 24.9078 21.1322C24.9078 23.6923 26.9907 25.7751 29.5506 25.7751ZM29.5506 19.3465C30.5354 19.3465 31.3364 20.1475 31.3364 21.1322C31.3364 22.1169 30.5354 22.9179 29.5506 22.9179C28.5659 22.9179 27.7649 22.1169 27.7649 21.1322C27.7649 20.1475 28.566 19.3465 29.5506 19.3465Z" fill="#F1CDB3"/>
<path d="M24.1935 26.6561C24.1935 24.0959 22.1108 22.0132 19.5507 22.0132C16.9906 22.0132 14.9078 24.096 14.9078 26.6561C14.9078 29.2162 16.9905 31.2989 19.5507 31.2989C22.1109 31.2989 24.1935 29.2162 24.1935 26.6561ZM19.5507 28.4418C18.566 28.4418 17.765 27.6408 17.765 26.6561C17.765 25.6714 18.566 24.8704 19.5507 24.8704C20.5354 24.8704 21.3364 25.6714 21.3364 26.6561C21.3364 27.6408 20.5353 28.4418 19.5507 28.4418Z" fill="#F1CDB3"/>
<path d="M39.5506 22.0131C36.9904 22.0131 34.9078 24.0959 34.9078 26.656C34.9078 29.216 36.9907 31.2988 39.5506 31.2988C42.1108 31.2988 44.1935 29.2162 44.1935 26.656C44.1935 24.0958 42.1108 22.0131 39.5506 22.0131ZM39.5506 28.4418C38.5659 28.4418 37.7649 27.6408 37.7649 26.6561C37.7649 25.6714 38.566 24.8704 39.5506 24.8704C40.5353 24.8704 41.3363 25.6714 41.3363 26.6561C41.3363 27.6408 40.5353 28.4418 39.5506 28.4418Z" fill="#F1CDB3"/>
<path d="M24.6935 50.1322H24.3466C23.5577 50.1322 22.9181 50.7719 22.9181 51.5607C22.9181 52.3496 23.5578 52.9892 24.3466 52.9892H24.6935C25.4824 52.9892 26.122 52.3495 26.122 51.5607C26.1221 50.7719 25.4825 50.1322 24.6935 50.1322Z" fill="#F1CDB3"/>
</svg>
