<svg width="60" height="60" viewBox="0 0 60 60" fill="none" xmlns="http://www.w3.org/2000/svg">
<path d="M59.6561 15.8985L44.1011 0.343125C43.6435 -0.114375 42.9017 -0.114375 42.4437 0.343125L38.3012 4.48547C38.0814 4.70525 37.958 5.00331 37.958 5.3141C37.958 5.62489 38.0814 5.92295 38.3012 6.14273L43.2222 11.0637L38.5633 15.7226L31.3923 8.55152C30.9345 8.09391 30.1926 8.09402 29.7349 8.55152L24.9765 13.3099C24.7567 13.5297 24.6333 13.8278 24.6333 14.1386C24.6333 14.4493 24.7567 14.7474 24.9765 14.9672L26.4877 16.4784L7.06484 35.902C5.28008 37.6868 5.28008 40.5911 7.06484 42.3762L8.55605 43.8674L5.82184 46.6016C5.71301 46.7104 5.62668 46.8396 5.56778 46.9818C5.50888 47.124 5.47856 47.2763 5.47856 47.4302C5.47856 47.5841 5.50888 47.7365 5.56778 47.8787C5.62668 48.0209 5.71301 48.1501 5.82184 48.2589L7.95254 50.3897L0.342969 57.9991C-0.114648 58.4568 -0.114648 59.1988 0.342969 59.6565C0.571836 59.8854 0.871719 59.9998 1.1716 59.9998C1.47148 59.9998 1.77148 59.8854 2.00023 59.6565L9.60992 52.0468L11.7407 54.1777C11.9605 54.3974 12.2586 54.5208 12.5694 54.5208C12.8802 54.5208 13.1782 54.3974 13.398 54.1777L16.1322 51.4434L17.6234 52.9347C18.488 53.7993 19.6378 54.2754 20.8605 54.2754C22.0832 54.2754 23.233 53.7993 24.0976 52.9347L43.5207 33.5116L45.032 35.0229C45.1406 35.1319 45.2698 35.2183 45.412 35.2772C45.5542 35.3361 45.7067 35.3663 45.8606 35.3661C46.1606 35.3661 46.4604 35.2518 46.6892 35.0229L51.4475 30.2645C51.6672 30.0447 51.7907 29.7466 51.7907 29.4359C51.7907 29.1251 51.6672 28.827 51.4475 28.6072L44.2764 21.4362L48.9353 16.7773L53.8563 21.6982C53.965 21.8072 54.0941 21.8936 54.2364 21.9525C54.3786 22.0114 54.531 22.0416 54.6849 22.0414C54.9849 22.0414 55.2847 21.9271 55.5136 21.6982L59.656 17.5557C60.1139 17.0982 60.1139 16.3562 59.6561 15.8985ZM24.7355 21.546L30.1573 26.9678C30.266 27.0768 30.3952 27.1632 30.5374 27.2221C30.6796 27.281 30.8321 27.3112 30.986 27.311C31.286 27.311 31.5857 27.1966 31.8146 26.9678C32.2722 26.5102 32.2722 25.7681 31.8146 25.3105L26.3928 19.8887L28.1451 18.1364L38.2338 28.2251L32.8745 33.5844L22.7857 23.4956L24.7355 21.546ZM12.5694 51.6916L8.30773 47.4301L10.2134 45.5246L14.4748 49.7861L12.5694 51.6916ZM22.4401 51.2773C21.5691 52.1482 20.1518 52.1483 19.2808 51.2773L8.72211 40.7187C7.85105 39.8476 7.85105 38.4302 8.72211 37.5593L10.3913 35.8901L13.277 38.7757C13.5058 39.0046 13.8057 39.1189 14.1056 39.1189C14.4055 39.1189 14.7055 39.0046 14.9342 38.7757C15.3918 38.3181 15.3918 37.5761 14.9342 37.1183L12.0486 34.2327L13.9771 32.304L19.3988 37.7257C19.6277 37.9546 19.9276 38.0689 20.2275 38.0689C20.5273 38.0689 20.8273 37.9545 21.0561 37.7257C21.5137 37.2681 21.5137 36.5261 21.0561 36.0684L15.6343 30.6466L17.563 28.718L20.4486 31.6036C20.6775 31.8325 20.9773 31.9468 21.2772 31.9468C21.5771 31.9468 21.8771 31.8325 22.1059 31.6036C22.5635 31.146 22.5635 30.4039 22.1059 29.9462L19.2202 27.0606L21.1278 25.153L31.2166 35.2417L23.5958 42.8626C23.1382 43.3202 23.1382 44.0623 23.5958 44.52C23.8246 44.7489 24.1245 44.8632 24.4244 44.8632C24.7243 44.8632 25.0243 44.7487 25.253 44.52L32.8739 36.8991L34.8457 38.8709L22.4401 51.2773ZM36.5039 37.2137L34.5321 35.2417L39.8914 29.8822L41.8632 31.854L36.5039 37.2137ZM48.9616 29.4359L45.8606 32.5369L27.4625 14.1389L30.5635 11.0379L48.9616 29.4359ZM42.6193 19.7789L40.2206 17.3802L44.8795 12.7212L47.2782 15.1199L42.6193 19.7789ZM54.6853 19.2123L40.7873 5.31422L43.2725 2.82902L57.1705 16.727L54.6853 19.2123Z" fill="#F1CDB3"/>
<path d="M22.3154 46.7207C22.3013 46.6457 22.2779 46.5719 22.2486 46.5016C22.2195 46.4306 22.1833 46.3627 22.1408 46.2988C22.0986 46.2344 22.0494 46.1746 21.9955 46.1207C21.9416 46.0668 21.8818 46.0176 21.8173 45.9754C21.7535 45.9328 21.6856 45.8967 21.6146 45.8676C21.5443 45.8383 21.4705 45.816 21.3955 45.8008C21.2446 45.7703 21.0892 45.7703 20.9384 45.8008C20.8634 45.816 20.7896 45.8383 20.7193 45.8676C20.6478 45.8969 20.5798 45.9332 20.5166 45.9754C20.4521 46.0176 20.3923 46.0668 20.3384 46.1207C20.2845 46.1746 20.2353 46.2344 20.1931 46.2988C20.1509 46.362 20.1146 46.4301 20.0853 46.5016C20.056 46.5719 20.0326 46.6457 20.0185 46.7207C20.0033 46.7957 19.9951 46.8731 19.9951 46.9492C19.9951 47.0254 20.0033 47.1028 20.0185 47.1789C20.0326 47.2528 20.056 47.3266 20.0853 47.3981C20.1146 47.4684 20.1509 47.5364 20.1931 47.5996C20.2353 47.6641 20.2845 47.7239 20.3384 47.7778C20.4472 47.8871 20.5767 47.9735 20.7193 48.0321C20.8611 48.0913 21.0133 48.1216 21.1669 48.1211C21.3206 48.1216 21.4728 48.0913 21.6146 48.0321C21.7572 47.9735 21.8867 47.8871 21.9955 47.7778C22.0494 47.7239 22.0986 47.6641 22.1408 47.5996C22.183 47.5364 22.2193 47.4684 22.2486 47.3981C22.2779 47.3266 22.3013 47.2528 22.3154 47.1789C22.3306 47.1028 22.3388 47.0254 22.3388 46.9492C22.3388 46.8731 22.3306 46.7957 22.3154 46.7207Z" fill="#F1CDB3"/>
</svg>
